{"glyphs":{" ":{"ha":0,"x_min":0,"x_max":0,"o":""},"A":{"ha":1703,"x_min":0,"x_max":0,"o":"m 869 51 l 869 -211 l 1196 -211 b 1203 -218 1200 -211 1203 -214 l 1203 -236 b 1196 -243 1203 -240 1200 -243 l 508 -243 b 500 -236 503 -243 500 -240 l 500 -218 b 508 -211 500 -214 503 -211 l 835 -211 l 835 51 l 333 51 b 196 108 279 51 233 71 b 139 246 158 146 139 192 l 139 744 b 196 882 139 799 158 844 b 333 939 233 919 279 939 l 1371 939 b 1508 882 1425 939 1471 919 b 1564 744 1546 844 1564 799 l 1564 246 b 1508 108 1564 192 1546 146 b 1371 51 1471 71 1425 51 "},"B":{"ha":1832,"x_min":0,"x_max":0,"o":"m 1386 925 b 1529 783 1465 925 1529 861 l 1529 178 l 356 178 l 356 783 b 497 925 356 861 419 925 m 1536 151 l 1682 -37 b 1711 -169 1719 -86 1729 -131 b 1590 -228 1693 -208 1653 -228 l 294 -228 b 174 -169 232 -228 192 -208 b 203 -37 156 -131 165 -86 l 350 151 m 1135 -122 b 1142 -115 1139 -122 1142 -119 l 1142 -104 b 1135 -96 1142 -99 1139 -96 l 750 -96 b 742 -104 744 -96 742 -99 l 742 -115 b 750 -122 742 -119 744 -122 "},"C":{"ha":933,"x_min":0,"x_max":0,"o":"m 589 957 b 735 897 646 957 694 938 b 794 751 775 857 794 808 l 794 -58 b 735 -203 794 -115 775 -162 b 589 -262 694 -243 646 -262 l 344 -262 b 200 -203 288 -262 240 -243 b 139 -58 160 -162 139 -115 l 139 751 b 200 897 139 808 160 857 b 344 957 240 938 288 957 m 589 794 b 596 803 593 794 596 797 l 596 814 b 589 821 596 818 593 821 l 343 821 b 336 814 339 821 336 818 l 336 803 b 343 794 336 797 339 794 m 514 -56 b 421 -56 489 -29 446 -29 b 421 -150 396 -82 396 -125 b 514 -150 446 -175 489 -175 b 514 -56 539 -125 539 -82 "},"D":{"ha":1204,"x_min":0,"x_max":0,"o":"m 872 951 b 1010 894 926 951 972 932 b 1065 757 1047 857 1065 811 l 1065 -62 b 1010 -200 1065 -117 1047 -162 b 872 -257 972 -237 926 -257 l 332 -257 b 196 -200 278 -257 233 -237 b 139 -62 158 -162 139 -117 l 139 757 b 196 894 139 811 158 857 b 332 951 233 932 278 951 m 650 -67 b 557 -67 625 -40 582 -40 b 557 -161 532 -93 532 -136 b 650 -161 582 -186 625 -186 b 650 -67 675 -136 675 -93 "},"E":{"ha":938,"x_min":0,"x_max":0,"o":"m 622 946 b 653 932 633 961 657 950 l 567 414 l 786 414 b 800 386 799 414 810 397 l 325 -251 b 293 -239 314 -267 289 -257 l 381 281 l 161 281 b 147 308 146 281 138 296 "},"F":{"ha":1204,"x_min":0,"x_max":0,"o":"m 139 638 l 139 808 b 182 851 139 838 153 851 l 428 851 b 469 808 454 851 469 835 l 469 638 m 735 638 l 735 808 b 778 851 735 838 749 851 l 1022 851 b 1065 808 1051 851 1065 838 l 1065 638 m 139 611 l 469 611 l 469 282 b 603 150 469 200 536 150 b 735 282 668 150 735 200 l 735 611 l 1065 611 l 1065 282 b 921 -62 1065 136 1008 11 b 603 -176 833 -135 718 -176 b 283 -62 486 -176 371 -135 b 139 282 196 11 139 136 "},"G":{"ha":1311,"x_min":0,"x_max":0,"o":"m 656 865 b 1021 714 799 865 919 815 b 1172 349 1122 613 1172 492 b 1060 28 1172 229 1135 122 l 754 271 b 781 349 772 294 781 319 b 656 474 781 417 726 474 b 621 469 643 474 632 472 l 524 849 b 656 865 565 860 610 865 m 597 460 b 575 446 589 456 582 450 l 267 690 b 497 840 331 763 407 813 m 557 426 b 531 349 539 404 531 378 b 656 224 531 281 585 224 b 689 228 667 224 678 225 l 788 -151 b 656 -168 744 -162 700 -168 b 290 -17 513 -168 392 -118 b 139 349 189 85 139 206 b 250 669 139 469 176 576 m 656 447 b 754 349 710 447 754 403 b 656 250 754 294 710 250 b 557 349 600 250 557 294 b 656 447 557 403 600 447 m 714 238 b 735 253 724 243 731 249 l 1043 8 b 813 -143 978 -65 901 -115 "},"H":{"ha":1311,"x_min":0,"x_max":0,"o":"m 290 711 b 656 863 392 813 513 863 b 1021 711 799 863 919 813 b 1172 346 1122 610 1172 489 b 1021 -19 1172 203 1122 82 b 656 -171 919 -121 799 -171 b 290 -19 513 -171 392 -121 b 139 346 189 82 139 203 b 290 711 139 489 189 610 m 469 518 b 429 476 447 518 429 500 b 469 436 429 454 447 436 b 511 476 493 436 511 454 b 469 518 511 500 493 518 m 843 518 b 801 476 819 518 801 500 b 843 436 801 454 819 436 b 883 476 865 436 883 454 b 843 518 883 500 865 518 m 938 190 b 375 190 817 -19 497 -19 b 365 193 372 194 369 196 l 356 186 b 353 176 351 185 350 181 b 539 26 399 103 461 53 b 774 26 617 0 694 0 b 960 176 851 53 914 103 b 958 186 963 181 963 183 l 949 193 b 938 190 944 196 940 194 "},"I":{"ha":1469,"x_min":0,"x_max":0,"o":"m 411 643 l 139 643 l 139 669 l 411 669 l 411 935 l 438 935 l 438 669 l 1017 669 b 1036 665 1024 669 1031 668 l 1293 922 l 1311 904 l 1054 646 b 1058 628 1057 640 1058 635 l 1058 47 l 1331 47 l 1331 21 l 1058 21 l 1058 -244 l 1032 -244 l 1032 21 l 451 21 b 411 63 429 21 411 39 m 438 67 l 1014 643 l 438 643 m 1032 47 l 1032 624 l 456 47 "},"J":{"ha":1374,"x_min":0,"x_max":0,"o":"m 700 861 l 700 360 l 1201 360 l 1064 497 l 1083 515 l 1224 375 b 1224 317 1239 360 1239 333 l 1083 176 l 1064 194 l 1201 333 l 700 333 l 700 -169 l 838 -32 l 857 -50 l 717 -190 b 658 -190 700 -206 674 -206 l 518 -50 l 536 -32 l 674 -169 l 674 333 l 172 333 l 310 194 l 292 176 l 151 317 b 151 375 135 333 135 360 l 292 515 l 310 497 l 172 360 l 674 360 l 674 861 l 536 724 l 518 742 l 658 882 b 717 882 674 899 700 899 l 857 742 l 838 724 "},"K":{"ha":1582,"x_min":0,"x_max":0,"o":"m 1275 750 b 1442 596 1363 750 1435 683 l 139 596 b 307 750 146 683 218 750 m 1443 567 l 1443 375 l 139 375 l 139 567 m 1443 346 l 1443 108 b 1394 -11 1443 63 1426 22 b 1275 -60 1361 -43 1321 -60 l 307 -60 b 189 -11 261 -60 221 -43 b 139 108 156 22 139 63 l 139 346 "},"L":{"ha":1728,"x_min":0,"x_max":0,"o":"m 1556 411 b 1594 379 1578 424 1606 411 b 1201 96 1543 206 1365 99 b 906 235 1090 90 976 140 b 839 235 888 261 857 261 b 381 132 732 88 533 64 b 150 379 274 175 185 267 b 189 411 139 411 167 424 b 326 401 238 382 282 379 b 444 496 371 424 400 450 b 510 561 472 525 494 546 b 578 606 525 575 547 590 b 671 629 608 621 639 628 b 842 529 733 631 790 597 b 903 529 860 506 885 506 b 1074 629 954 597 1011 631 b 1236 561 1136 628 1206 589 b 1300 496 1251 546 1272 525 b 1418 401 1344 450 1374 424 b 1556 411 1463 379 1507 382 "},"M":{"ha":1424,"x_min":0,"x_max":0,"o":"m 1139 890 b 1263 768 1221 972 1343 849 l 990 496 l 1025 -139 b 999 -219 1026 -178 1018 -204 b 949 -192 979 -235 963 -226 b 944 -178 947 -187 946 -182 l 801 307 l 553 58 l 594 -142 b 540 -168 604 -182 569 -200 l 389 13 l 204 168 b 229 224 172 197 190 233 l 429 181 l 678 429 l 200 571 b 199 651 118 594 131 639 b 235 654 211 654 222 656 l 868 619 "},"N":{"ha":1160,"x_min":0,"x_max":0,"o":"m 239 803 b 306 869 239 843 265 869 l 825 869 l 825 -164 l 306 -164 b 239 -96 265 -164 239 -136 l 239 26 l 146 26 b 139 33 142 26 139 29 l 139 46 b 146 53 139 50 142 53 l 239 53 l 239 235 l 146 235 b 139 243 142 235 139 238 l 139 254 b 146 261 139 258 142 261 l 239 261 l 239 444 l 146 444 b 139 451 142 444 139 447 l 139 464 b 146 471 139 468 142 471 l 239 471 l 239 653 l 146 653 b 139 661 142 653 139 656 l 139 672 b 146 679 139 676 142 679 l 239 679 m 863 869 b 975 822 906 869 943 854 b 1021 710 1006 790 1021 753 l 1021 -4 b 975 -117 1021 -47 1006 -85 b 863 -164 943 -149 906 -164 l 851 -164 l 851 869 m 332 672 b 324 679 332 676 329 679 l 244 679 l 244 653 l 324 653 b 332 661 329 653 332 656 m 332 464 b 324 471 332 468 329 471 l 244 471 l 244 444 l 324 444 b 332 451 329 444 332 447 m 331 254 b 324 261 331 258 328 261 l 244 261 l 244 235 l 324 235 b 331 243 328 235 331 238 m 331 46 b 324 53 331 50 328 53 l 244 53 l 244 26 l 324 26 b 331 33 328 26 331 29 "},"O":{"ha":1246,"x_min":0,"x_max":0,"o":"m 911 744 b 722 744 860 693 775 693 b 722 935 669 796 669 882 b 911 935 775 988 860 988 b 911 744 963 882 963 796 m 893 915 b 740 915 851 958 783 958 b 740 764 697 872 697 806 b 893 764 783 722 851 722 b 893 915 935 806 935 872 m 646 611 b 529 611 614 578 561 578 b 529 729 496 643 496 696 b 646 729 561 761 614 761 b 646 611 678 696 678 643 m 588 726 b 531 669 556 726 531 701 b 588 613 531 638 556 613 b 643 669 617 613 643 638 b 588 726 643 701 617 726 m 1078 -93 b 996 -278 1138 -143 1140 -281 l 268 -278 b 185 -93 124 -281 124 -143 l 433 153 l 433 503 b 333 586 433 569 404 586 b 326 593 329 586 326 589 l 326 606 b 333 613 326 610 329 613 b 460 503 418 613 460 585 l 460 483 b 625 476 511 456 551 458 b 718 494 665 488 696 493 b 803 472 740 494 768 488 l 803 503 b 929 613 803 585 844 613 b 936 606 933 613 936 610 l 936 593 b 929 586 936 589 933 586 b 829 503 858 586 829 569 l 829 153 "},"P":{"ha":1344,"x_min":0,"x_max":0,"o":"m 1050 686 b 1206 308 1154 582 1206 456 b 1144 60 1206 221 1185 139 b 979 -128 1106 -14 1050 -76 b 969 -126 975 -131 972 -131 l 963 -117 b 964 -107 960 -112 960 -110 b 1106 43 1021 -67 1068 -17 l 1022 92 b 1019 101 1018 93 1017 97 l 1025 113 b 1035 114 1028 117 1031 117 l 1118 67 b 1121 72 1119 68 1121 71 b 1179 296 1158 142 1178 217 l 1083 296 b 1076 303 1079 296 1076 299 l 1076 314 b 1083 322 1076 319 1079 322 l 1179 322 b 1118 550 1178 403 1158 479 l 1035 503 b 1025 506 1031 500 1026 501 l 1019 515 b 1022 525 1018 519 1018 524 l 1106 574 b 938 742 1063 642 1006 699 l 889 657 b 879 656 888 654 883 654 l 869 661 b 867 671 865 663 864 667 l 914 754 b 686 815 843 794 767 814 l 686 719 b 678 713 686 715 683 713 l 667 713 b 660 719 663 713 660 715 l 660 815 b 431 754 578 814 501 794 l 478 671 b 476 661 481 667 481 664 l 465 656 b 456 657 461 653 458 653 l 407 742 b 240 574 338 699 282 642 l 324 525 b 326 515 328 522 328 519 l 319 506 b 310 503 318 501 314 501 l 226 550 b 165 322 189 482 168 406 l 261 322 b 269 314 267 322 269 319 l 269 303 b 261 296 269 299 267 296 l 165 296 b 224 72 168 214 188 139 b 226 67 225 72 225 67 l 310 114 b 319 113 314 115 318 115 l 326 101 b 324 92 329 97 328 94 l 240 43 b 381 -107 275 -14 321 -64 b 382 -117 385 -110 386 -112 l 375 -126 b 365 -128 372 -131 369 -131 b 200 60 294 -76 239 -14 b 139 308 160 139 139 221 b 296 686 139 456 192 582 b 672 842 400 790 525 842 b 1050 686 819 842 946 790 m 801 624 b 797 632 803 628 801 631 l 786 636 b 776 632 781 639 778 638 l 689 390 b 672 393 682 392 676 393 b 614 250 599 393 563 300 b 757 308 664 199 757 235 b 714 382 757 340 743 364 "},"Q":{"ha":1042,"x_min":0,"x_max":0,"o":"m 747 690 b 521 758 679 736 603 758 b 294 690 439 758 363 736 l 294 900 b 336 940 294 924 313 940 l 706 940 b 747 900 729 940 747 924 m 251 621 b 521 732 325 694 415 732 b 792 621 626 732 717 694 b 903 350 865 546 903 456 b 792 81 903 244 865 154 b 521 -32 717 6 626 -32 b 251 81 415 -32 325 6 b 139 350 176 154 139 244 b 251 621 139 456 176 546 m 742 508 b 743 518 746 511 746 514 l 735 528 b 725 529 732 532 729 532 l 522 361 l 393 478 b 383 478 389 482 386 482 l 375 468 b 375 458 372 467 372 463 l 514 333 l 522 326 m 294 10 b 521 -58 363 -36 439 -58 b 747 10 603 -58 679 -36 l 747 -200 b 706 -240 747 -224 729 -240 l 336 -240 b 294 -200 313 -240 294 -224 "},"R":{"ha":1315,"x_min":0,"x_max":0,"o":"m 488 838 b 657 867 544 857 600 867 b 1021 718 799 867 919 817 b 717 499 942 621 840 547 b 488 838 650 628 574 740 m 143 419 b 461 828 169 600 292 758 b 692 489 546 735 624 622 b 143 419 540 433 357 410 m 1039 699 b 1176 347 1131 601 1176 485 l 1176 318 b 790 332 1042 353 914 357 b 728 474 769 385 749 432 b 1039 699 854 525 958 600 m 299 -28 b 290 -21 294 -24 292 -22 b 139 347 189 82 139 204 b 140 393 139 368 139 383 b 703 465 361 383 549 407 b 765 325 724 422 744 375 b 299 -28 571 278 415 160 m 1174 292 b 911 -106 1156 124 1057 -24 b 800 307 889 33 851 171 b 1174 292 917 331 1042 326 m 886 -119 b 657 -172 814 -154 738 -172 b 318 -46 528 -172 415 -131 b 774 300 431 139 583 254 b 886 -119 825 165 863 25 "},"S":{"ha":1461,"x_min":0,"x_max":0,"o":"m 158 664 b 157 711 135 676 133 699 l 463 881 b 510 882 478 890 494 890 l 701 776 l 325 571 m 939 876 b 986 876 954 885 971 885 l 1303 704 b 1303 657 1329 689 1329 669 l 1142 569 l 757 776 m 1114 554 l 728 343 l 351 556 l 729 761 m 700 328 l 504 221 b 489 221 500 218 494 218 l 161 403 b 161 450 138 418 138 435 l 325 540 m 1142 539 l 1301 454 b 1301 407 1325 439 1325 419 l 961 219 b 946 219 956 217 950 217 l 754 328 m 346 -8 b 321 32 329 0 321 14 l 319 285 l 476 199 b 517 199 490 192 504 192 l 714 306 l 714 -192 m 933 197 b 974 197 949 189 961 189 l 1142 289 l 1143 38 b 1117 -3 1143 19 1135 6 l 740 -192 l 740 306 "},"T":{"ha":1229,"x_min":0,"x_max":0,"o":"m 829 682 b 878 781 831 721 847 754 b 976 821 907 807 940 821 b 1081 776 1013 819 1047 806 b 1085 574 1138 710 1139 633 b 986 525 1058 543 1025 526 b 974 489 965 526 958 501 l 1092 372 b 1092 303 1115 349 1115 326 l 674 -115 b 604 -115 650 -139 628 -139 l 189 300 b 189 368 167 322 167 344 l 307 486 b 343 474 322 501 342 494 b 594 379 351 351 504 286 b 501 631 688 472 624 624 b 488 667 481 632 475 651 l 604 785 b 674 786 628 808 650 810 l 793 668 b 829 682 806 656 829 664 "},"U":{"ha":1400,"x_min":0,"x_max":0,"o":"m 1025 106 b 1015 108 1021 103 1018 104 l 1010 119 b 1013 129 1007 124 1008 128 l 1132 197 b 1188 183 1153 208 1175 201 b 1264 64 1221 129 1246 90 b 1261 53 1267 58 1265 54 l 1251 47 b 1242 49 1247 43 1244 44 l 1168 164 b 704 -222 1114 -90 911 -228 b 239 164 499 -228 294 -90 l 167 49 b 157 47 164 44 161 43 l 146 53 b 144 64 142 54 142 58 l 221 183 b 276 197 233 201 256 208 l 396 129 b 399 119 400 126 401 124 l 393 108 b 383 106 390 104 388 103 l 264 174 b 419 -97 288 58 339 -32 b 690 -197 499 -161 589 -194 l 690 458 l 499 458 b 492 465 494 458 492 461 l 492 478 b 499 485 492 482 494 485 l 690 485 l 690 606 b 554 754 614 613 554 676 b 704 904 554 838 621 904 b 854 754 788 904 854 838 b 717 606 854 676 794 613 l 717 485 l 910 485 b 917 478 914 485 917 482 l 917 465 b 910 458 917 461 914 458 l 717 458 l 717 -197 b 990 -97 818 -194 910 -161 b 1143 174 1069 -32 1121 58 m 617 842 b 617 667 568 793 568 715 b 792 667 665 618 743 618 b 792 842 840 715 840 793 b 617 842 743 890 665 890 "},"V":{"ha":1093,"x_min":0,"x_max":0,"o":"m 554 921 b 643 833 604 921 643 882 b 554 744 643 785 604 744 b 468 833 508 744 468 785 b 554 921 468 882 506 921 m 189 -61 b 156 -3 150 -61 138 -37 b 256 403 222 118 256 253 b 854 403 256 836 854 836 b 954 -3 854 253 888 118 b 921 -61 972 -37 960 -61 m 704 -87 b 556 -224 699 -172 626 -224 b 406 -87 483 -224 411 -172 "},"W":{"ha":1414,"x_min":0,"x_max":0,"o":"m 803 843 b 846 829 814 832 828 828 l 944 843 b 974 822 961 844 971 838 l 990 724 b 1017 688 994 706 1003 694 l 1106 640 b 1117 606 1119 632 1124 621 l 1072 517 b 1072 471 1065 501 1065 486 l 1117 382 b 1106 347 1124 367 1119 356 l 1017 300 b 990 264 1003 293 994 282 l 974 165 b 944 144 969 150 960 143 l 846 158 b 803 144 831 163 815 157 l 731 75 b 694 75 718 63 707 63 l 622 144 b 581 158 610 157 596 163 l 481 144 b 451 165 465 143 456 150 l 435 264 b 408 300 431 282 422 293 l 319 347 b 308 382 306 356 301 367 l 353 471 b 353 517 360 486 360 501 l 308 606 b 319 640 301 621 306 632 l 408 688 b 435 724 422 694 431 706 l 451 822 b 481 843 453 835 468 844 l 581 829 b 622 843 597 828 611 832 l 694 913 b 731 913 707 925 718 925 m 617 111 b 594 132 603 125 596 132 l 588 132 l 472 117 b 426 150 446 114 431 125 l 408 265 b 401 275 407 268 406 271 l 376 288 l 150 26 b 168 -7 138 11 147 -7 l 347 -3 l 404 -194 b 440 -199 410 -210 431 -214 m 986 -199 b 1021 -194 996 -214 1017 -210 l 1078 -3 l 1257 -7 b 1275 26 1278 -7 1288 11 l 1049 288 l 1024 275 b 1017 265 1019 271 1018 268 l 999 150 b 953 117 994 125 979 114 l 838 132 l 831 132 b 808 111 829 132 822 125 "},"X":{"ha":1349,"x_min":0,"x_max":0,"o":"m 983 457 b 1079 196 1047 383 1079 296 b 961 -92 1079 83 1040 -12 b 674 -210 882 -171 786 -210 b 388 -92 561 -210 467 -171 b 268 196 308 -12 268 83 b 378 474 268 303 304 394 l 157 856 b 192 914 136 889 151 914 l 515 914 b 574 882 542 914 561 903 l 669 719 l 593 590 l 628 597 l 792 881 b 850 914 804 903 824 914 l 1178 914 b 1211 856 1217 914 1232 889 m 715 376 b 708 383 715 381 713 383 l 699 383 b 688 381 694 383 690 382 l 529 293 b 526 283 525 290 524 288 l 533 274 b 543 271 536 268 539 267 l 689 351 l 689 -26 b 696 -33 689 -31 692 -33 l 708 -33 b 715 -26 713 -33 715 -31 "},"Y":{"ha":1229,"x_min":0,"x_max":0,"o":"m 860 644 b 914 614 883 671 914 649 b 1011 397 918 536 965 451 b 1113 182 1057 342 1107 260 b 818 -228 1126 -19 992 -171 b 301 -124 646 -287 435 -260 b 172 307 192 -11 140 156 b 219 325 178 340 207 347 b 256 275 232 304 244 288 b 351 197 286 239 318 213 b 382 228 369 190 389 210 b 767 951 221 563 417 903 b 794 910 796 956 810 936 b 751 472 722 785 689 594 b 804 489 769 438 806 449 b 860 644 800 547 819 599 "},"Z":{"ha":1375,"x_min":0,"x_max":0,"o":"m 603 886 b 815 886 674 900 744 900 l 815 583 b 603 583 744 615 674 615 m 575 569 b 488 482 540 546 511 517 l 178 482 b 322 736 201 579 250 664 b 575 881 393 807 478 856 m 842 881 b 1097 736 940 856 1025 807 b 1240 482 1168 664 1217 579 l 929 482 b 842 569 908 517 879 546 m 171 242 b 171 456 157 313 157 383 l 474 456 b 474 242 442 383 442 313 m 943 242 b 943 456 975 313 975 383 l 1246 456 b 1246 242 1260 383 1260 313 m 575 -183 b 322 -40 478 -160 393 -111 b 178 215 250 32 201 117 l 488 215 b 575 128 511 178 540 149 m 1240 215 b 1097 -40 1217 117 1168 32 b 842 -183 1025 -111 940 -160 l 842 128 b 929 215 879 149 908 178 m 815 -189 b 603 -189 744 -203 674 -203 l 603 114 b 815 114 674 82 744 82 "},"a":{"ha":1172,"x_min":0,"x_max":0,"o":"m 215 246 b 139 501 164 322 139 407 b 269 818 139 625 182 731 b 586 949 357 906 463 949 b 903 818 710 949 815 906 b 1033 501 990 731 1033 625 b 953 246 1033 410 1007 325 l 650 -197 b 519 -199 611 -254 557 -254 m 742 657 b 586 721 699 700 646 721 b 432 657 526 721 475 700 b 367 501 389 614 367 561 b 432 347 367 442 389 390 b 586 282 475 304 526 282 b 742 347 646 282 699 304 b 806 501 785 390 806 442 b 742 657 806 561 785 614 m 586 694 b 450 639 532 694 488 676 b 393 501 413 601 393 556 b 450 365 393 447 413 403 b 586 308 488 328 532 308 b 722 365 639 308 685 328 b 779 501 760 403 779 447 b 722 639 779 556 760 601 b 586 694 685 676 639 694 "},"b":{"ha":1681,"x_min":0,"x_max":0,"o":"m 1356 913 b 1488 858 1407 913 1450 894 b 1542 726 1524 821 1542 778 l 1542 335 b 1379 150 1542 242 1472 163 l 1368 149 l 1368 -50 b 1328 -69 1368 -74 1344 -85 l 1089 149 l 715 149 b 585 204 664 149 621 167 b 529 335 547 240 529 283 l 529 726 b 585 858 529 778 547 821 b 715 913 621 894 664 913 m 503 335 b 565 185 503 276 524 226 b 715 122 607 143 657 122 l 1054 122 l 1054 86 b 1006 -33 1054 40 1038 0 b 888 -82 974 -65 933 -82 l 532 -82 l 335 -262 b 294 -243 318 -278 294 -267 l 294 -83 b 139 86 204 -72 139 -4 l 139 440 b 188 560 139 486 156 526 b 306 608 219 592 260 608 l 503 608 "},"c":{"ha":1189,"x_min":0,"x_max":0,"o":"m 1050 -33 b 996 -165 1050 -85 1032 -128 b 865 -219 960 -201 917 -219 l 324 -219 b 193 -165 272 -219 229 -201 b 139 -33 157 -128 139 -85 l 139 728 b 193 858 139 779 157 822 b 324 913 229 894 272 913 l 754 913 l 754 660 b 797 618 754 636 774 618 l 1050 618 m 1038 644 l 797 644 b 781 660 786 644 781 650 l 781 900 m 835 415 b 843 424 840 415 843 418 l 843 436 b 835 443 843 440 840 443 l 353 443 b 346 436 349 443 346 440 l 346 424 b 353 415 346 418 349 415 m 835 199 b 843 207 840 199 843 201 l 843 219 b 835 228 843 225 840 228 l 353 228 b 346 219 349 228 346 225 l 346 207 b 353 199 346 201 349 199 m 835 -17 b 843 -10 840 -17 843 -14 l 843 3 b 835 11 843 8 840 11 l 353 11 b 346 3 349 11 346 8 l 346 -10 b 353 -17 346 -14 349 -17 "},"d":{"ha":1190,"x_min":0,"x_max":0,"o":"m 1051 -33 b 997 -165 1051 -85 1033 -129 b 865 -219 960 -201 917 -219 l 325 -219 b 193 -165 274 -219 229 -201 b 139 -33 157 -129 139 -85 l 139 728 b 194 858 139 779 157 822 b 325 913 231 894 274 913 l 754 913 l 754 658 b 796 617 754 635 774 617 l 1051 617 m 1039 643 l 796 643 b 781 658 786 643 781 649 l 781 901 "},"e":{"ha":1404,"x_min":0,"x_max":0,"o":"m 811 863 b 938 804 882 864 917 840 b 960 754 944 794 954 765 b 979 689 964 742 975 701 l 1096 689 b 1215 639 1142 689 1182 672 b 1265 519 1249 606 1265 565 l 1265 18 b 1215 -101 1265 -28 1249 -68 b 1096 -151 1182 -135 1142 -151 l 307 -151 b 189 -101 261 -151 221 -135 b 139 18 156 -68 139 -28 l 139 519 b 189 639 139 565 156 606 b 307 689 221 672 261 689 l 424 689 b 443 750 428 701 439 739 b 453 775 444 754 449 763 b 475 817 461 797 464 800 b 593 863 496 847 532 863 m 701 546 b 517 469 629 546 568 521 b 439 283 465 418 439 356 b 517 97 439 210 465 149 b 701 21 568 46 629 21 b 888 97 775 21 836 46 b 964 283 939 149 964 210 b 888 469 964 356 939 418 b 701 546 836 521 775 546 m 536 450 b 701 518 582 496 636 518 b 868 450 767 518 822 496 b 936 283 914 404 936 349 b 868 118 936 218 914 164 b 701 49 822 72 767 49 b 536 118 636 49 582 72 b 468 283 490 164 468 218 b 536 450 468 349 490 404 "},"f":{"ha":1390,"x_min":0,"x_max":0,"o":"m 1046 881 b 1192 821 1103 881 1151 861 b 1251 675 1232 781 1251 732 l 1251 247 b 1192 103 1251 190 1232 143 b 1046 42 1151 63 1103 42 l 639 42 l 376 -197 b 331 -175 358 -215 331 -203 l 331 42 l 318 43 b 190 111 267 50 225 72 b 139 247 156 150 139 196 l 139 675 b 200 821 139 732 160 781 b 344 881 240 861 288 881 "},"g":{"ha":1357,"x_min":0,"x_max":0,"o":"m 1018 871 b 1160 813 1072 871 1119 851 b 1218 672 1199 774 1218 726 l 1218 257 b 1160 117 1218 203 1199 156 b 1018 57 1119 76 1072 57 l 618 57 l 369 -169 b 324 -147 351 -187 324 -175 l 324 57 l 313 60 b 139 257 214 72 139 157 l 139 672 b 197 813 139 726 158 774 b 338 871 236 851 283 871 m 981 651 b 974 660 981 657 978 660 l 383 660 b 375 651 378 660 375 657 l 375 639 b 383 631 375 633 378 631 l 974 631 b 981 639 978 631 981 633 m 981 449 b 974 456 981 453 978 456 l 383 456 b 375 449 378 456 375 453 l 375 435 b 383 428 375 431 378 428 l 974 428 b 981 435 978 428 981 431 m 757 244 b 749 253 757 250 754 253 l 383 253 b 375 244 378 253 375 250 l 375 232 b 383 224 375 226 378 224 l 749 224 b 757 232 754 224 757 226 "},"h":{"ha":1294,"x_min":0,"x_max":0,"o":"m 329 178 b 517 -10 221 63 403 -124 l 1072 546 b 797 821 1250 724 975 999 l 239 263 b 601 -101 14 36 375 -328 l 1054 351 b 1065 351 1058 356 1061 356 l 1074 343 b 1074 332 1078 339 1078 336 l 621 -121 b 219 281 371 -371 -31 31 l 779 840 b 818 872 792 853 804 863 b 1026 879 885 915 954 918 b 1146 740 1086 849 1125 803 b 1092 528 1172 661 1154 590 l 535 -28 b 311 196 399 -164 175 60 l 763 647 b 774 647 767 651 769 651 l 781 639 b 781 628 785 635 785 632 "},"i":{"ha":1375,"x_min":0,"x_max":0,"o":"m 606 476 b 729 844 565 621 607 763 b 1079 854 831 911 964 917 b 1079 813 1097 844 1096 824 l 914 711 b 885 661 892 696 882 679 b 985 489 894 596 928 539 b 1040 492 997 478 1017 479 l 1200 582 b 1236 561 1217 592 1236 579 b 1119 308 1236 450 1197 365 b 818 256 1040 249 939 231 l 388 -175 b 168 39 272 -293 60 -69 m 297 -18 b 265 -50 281 -18 265 -33 b 297 -82 265 -68 281 -82 b 332 -50 318 -82 332 -68 b 297 -18 332 -33 315 -18 "},"j":{"ha":1426,"x_min":0,"x_max":0,"o":"m 1294 -181 b 1294 -211 1304 -190 1304 -201 l 1286 -219 b 1256 -219 1276 -229 1265 -229 l 888 150 b 588 38 803 75 703 38 b 271 169 464 38 358 82 b 139 488 183 257 139 364 b 271 806 139 611 183 718 b 588 938 358 893 464 938 b 906 806 711 938 818 893 b 1038 488 993 718 1038 611 b 925 189 1038 372 1000 274 "},"k":{"ha":1426,"x_min":0,"x_max":0,"o":"m 1294 -181 b 1294 -211 1304 -190 1304 -201 l 1286 -219 b 1256 -219 1276 -229 1265 -229 l 888 150 b 589 38 803 75 704 38 b 271 169 465 38 358 82 b 139 488 183 257 139 364 b 271 806 139 611 183 718 b 589 938 358 893 465 938 b 907 806 713 938 819 893 b 1039 488 994 718 1039 611 b 925 189 1039 374 1001 274 m 797 493 b 789 500 797 497 794 500 l 603 500 l 603 688 b 594 694 603 692 600 694 l 583 694 b 575 688 578 694 575 692 l 575 500 l 389 500 b 381 493 383 500 381 497 l 381 481 b 389 474 381 476 383 474 l 575 474 l 575 286 b 583 279 575 282 578 279 l 594 279 b 603 286 600 279 603 282 l 603 474 l 789 474 b 797 481 794 474 797 476 "},"l":{"ha":1426,"x_min":0,"x_max":0,"o":"m 1294 -181 b 1294 -211 1304 -190 1304 -201 l 1286 -219 b 1256 -219 1276 -229 1265 -229 l 888 150 b 589 38 803 75 704 38 b 271 169 465 38 358 82 b 139 488 183 257 139 364 b 271 806 139 611 183 718 b 589 938 358 893 465 938 b 907 806 713 938 819 893 b 1039 488 994 718 1039 611 b 925 189 1039 374 1001 274 m 796 493 b 788 501 796 499 793 501 l 389 501 b 381 493 383 501 381 499 l 381 481 b 389 474 381 476 383 474 l 788 474 b 796 481 793 474 796 476 "},"m":{"ha":1410,"x_min":0,"x_max":0,"o":"m 508 344 l 657 508 b 757 661 700 556 733 607 b 824 871 779 715 801 785 b 907 893 836 921 878 928 b 944 776 929 869 942 831 b 932 624 946 722 942 672 b 894 501 921 575 908 533 b 917 469 888 485 900 469 l 1181 469 b 1221 314 1261 475 1279 344 b 1226 274 1206 304 1210 279 b 1269 197 1256 264 1269 239 b 1218 119 1269 154 1253 129 b 1207 82 1201 115 1194 94 b 1174 -50 1251 43 1238 -47 b 1164 -89 1157 -51 1149 -78 b 1185 -165 1188 -107 1194 -132 b 1122 -214 1174 -197 1153 -214 l 826 -214 b 664 -179 788 -214 733 -203 b 508 -142 594 -156 543 -143 m 440 435 b 482 394 464 435 482 418 l 482 -168 b 440 -208 482 -192 464 -208 l 181 -208 b 139 -168 157 -208 139 -192 l 139 394 b 181 435 139 418 157 435 "},"n":{"ha":1525,"x_min":0,"x_max":0,"o":"m 592 154 b 594 197 617 167 618 181 b 474 383 521 249 485 299 l 446 635 b 528 847 436 725 463 796 b 763 922 592 897 669 922 b 999 847 856 922 933 897 b 1081 635 1064 796 1090 725 l 1051 383 b 936 200 1043 310 1004 249 b 935 154 914 185 908 167 l 1286 -15 b 1261 -243 1411 -76 1438 -243 l 264 -243 b 239 -15 92 -243 113 -76 "},"o":{"ha":1661,"x_min":0,"x_max":0,"o":"m 1085 82 b 1029 -79 1047 35 1029 -19 b 1088 -243 1029 -140 1049 -194 l 264 -243 b 239 -15 92 -243 113 -76 l 592 154 b 594 197 617 167 618 181 b 474 383 521 249 485 299 l 446 635 b 528 847 436 725 463 796 b 763 922 592 897 669 922 b 999 847 856 922 933 897 b 1081 635 1064 796 1090 725 l 1051 383 b 936 200 1043 310 1004 249 b 935 154 914 185 908 167 m 1289 -312 b 1454 -244 1354 -312 1408 -290 b 1522 -79 1500 -199 1522 -144 b 1454 86 1522 -15 1500 40 b 1289 154 1408 132 1354 154 b 1125 86 1225 154 1171 132 b 1056 -79 1079 40 1056 -15 b 1125 -244 1056 -144 1079 -199 b 1289 -312 1171 -290 1225 -312 m 1386 38 b 1396 38 1390 40 1393 40 l 1406 28 b 1406 18 1410 24 1410 21 l 1308 -79 l 1406 -176 b 1406 -186 1410 -179 1410 -182 l 1396 -196 b 1386 -196 1393 -199 1390 -199 l 1289 -99 l 1192 -196 b 1182 -196 1188 -199 1185 -199 l 1172 -186 b 1172 -176 1168 -182 1168 -179 l 1269 -79 l 1172 18 b 1172 28 1168 21 1168 24 l 1182 38 b 1192 38 1185 40 1188 40 l 1289 -60 "},"p":{"ha":1661,"x_min":0,"x_max":0,"o":"m 1085 82 b 1029 -79 1047 35 1029 -19 b 1088 -243 1029 -140 1049 -194 l 264 -243 b 239 -15 92 -243 113 -76 l 592 154 b 594 197 617 167 618 181 b 474 383 521 249 485 299 l 446 635 b 528 847 436 725 463 796 b 763 922 592 897 669 922 b 999 847 856 922 933 897 b 1081 635 1064 796 1090 725 l 1051 383 b 936 200 1043 310 1004 249 b 935 154 914 185 908 167 m 1289 -312 b 1454 -244 1354 -312 1408 -290 b 1522 -79 1500 -199 1522 -144 b 1454 86 1522 -15 1500 40 b 1289 154 1408 132 1354 154 b 1125 86 1225 154 1171 132 b 1056 -79 1079 40 1056 -15 b 1125 -244 1056 -144 1079 -199 b 1289 -312 1171 -290 1225 -312 m 1236 -200 b 1257 -201 1244 -210 1251 -211 l 1394 29 b 1404 32 1396 33 1400 35 l 1415 25 b 1417 15 1419 22 1419 19 l 1281 -214 b 1214 -212 1265 -237 1229 -239 l 1138 -82 b 1139 -72 1135 -78 1135 -75 l 1150 -67 b 1160 -71 1153 -65 1156 -67 "},"q":{"ha":1661,"x_min":0,"x_max":0,"o":"m 1085 82 b 1029 -79 1047 35 1029 -19 b 1088 -243 1029 -140 1049 -194 l 264 -243 b 239 -15 92 -243 113 -76 l 592 154 b 594 197 617 167 618 181 b 474 383 521 249 485 299 l 446 635 b 528 847 436 725 463 796 b 763 922 592 897 669 922 b 999 847 856 922 933 897 b 1081 635 1064 796 1090 725 l 1051 383 b 936 200 1043 310 1004 249 b 935 154 914 185 908 167 m 1289 -312 b 1454 -244 1354 -312 1408 -290 b 1522 -79 1500 -199 1522 -144 b 1454 86 1522 -15 1500 40 b 1289 154 1408 132 1354 154 b 1125 86 1225 154 1171 132 b 1056 -79 1079 40 1056 -15 b 1125 -244 1056 -144 1079 -199 b 1289 -312 1171 -290 1225 -312 m 1428 -65 b 1435 -72 1432 -65 1435 -68 l 1435 -86 b 1428 -93 1435 -90 1432 -93 l 1303 -93 l 1303 -218 b 1296 -225 1303 -222 1300 -225 l 1282 -225 b 1275 -218 1278 -225 1275 -222 l 1275 -93 l 1150 -93 b 1143 -86 1146 -93 1143 -90 l 1143 -72 b 1150 -65 1143 -68 1146 -65 l 1275 -65 l 1275 60 b 1282 67 1275 64 1278 67 l 1296 67 b 1303 60 1300 67 1303 64 l 1303 -65 "},"r":{"ha":1572,"x_min":0,"x_max":0,"o":"m 1332 -10 b 1306 -243 1458 -64 1489 -243 l 269 -243 b 243 -10 86 -243 117 -64 l 567 128 b 558 174 590 138 586 172 b 307 249 463 181 378 206 b 285 285 292 258 285 269 b 293 310 285 294 288 303 b 436 599 353 392 407 510 b 490 732 451 642 469 686 b 788 947 547 861 621 943 b 1086 732 953 943 1028 861 b 1200 451 1128 642 1149 558 b 1282 310 1225 397 1253 350 b 1290 285 1288 303 1290 294 b 1268 249 1290 269 1283 258 b 1017 174 1196 206 1113 181 b 1008 128 989 172 985 138 "},"s":{"ha":2157,"x_min":0,"x_max":0,"o":"m 292 -243 b 267 -11 118 -249 138 -67 l 631 163 b 631 200 649 172 649 189 b 504 393 549 257 515 303 l 475 647 b 558 861 465 739 493 810 b 797 938 624 913 703 938 b 1036 861 890 938 971 913 b 1118 647 1101 810 1128 739 l 1089 393 b 964 201 1078 303 1040 250 b 965 163 947 190 944 174 l 1328 -11 b 1418 -97 1369 -32 1400 -60 b 1415 -199 1436 -135 1435 -168 b 1301 -243 1394 -228 1357 -243 m 1386 -18 b 1339 13 1368 -4 1353 6 l 1194 82 b 1250 133 1207 106 1225 122 l 1493 250 b 1496 290 1515 260 1517 278 b 1417 415 1450 317 1424 358 l 1397 592 b 1453 736 1390 654 1408 701 b 1614 788 1497 771 1551 788 b 1775 736 1676 788 1731 771 b 1831 592 1819 701 1838 654 l 1811 415 b 1732 290 1804 358 1778 317 b 1735 250 1711 278 1713 260 l 1978 133 b 1961 -18 2061 92 2078 -18 "},"t":{"ha":2868,"x_min":0,"x_max":0,"o":"m 978 -243 b 953 -11 804 -249 824 -67 l 1317 163 b 1317 200 1335 172 1335 189 b 1190 393 1235 257 1201 303 l 1161 647 b 1244 861 1151 739 1179 810 b 1483 938 1310 913 1389 938 b 1722 861 1576 938 1657 913 b 1804 647 1788 810 1814 739 l 1775 393 b 1650 201 1764 303 1726 250 b 1651 163 1633 190 1631 174 l 2014 -11 b 2104 -97 2056 -32 2086 -60 b 2101 -199 2122 -135 2121 -168 b 1988 -243 2081 -228 2043 -243 m 2074 -18 b 2025 13 2058 -6 2042 6 l 1881 82 b 1936 133 1893 106 1911 122 l 2179 250 b 2182 290 2201 260 2203 278 b 2103 415 2136 317 2110 358 l 2083 592 b 2139 736 2076 654 2094 701 b 2300 788 2183 771 2238 788 b 2461 736 2363 788 2417 771 b 2517 592 2506 701 2524 654 l 2497 415 b 2418 290 2490 358 2464 317 b 2421 250 2397 278 2399 260 l 2664 133 b 2647 -18 2747 92 2764 -18 m 428 225 b 421 267 446 235 442 265 b 233 326 351 272 289 292 b 232 336 229 331 229 333 b 317 486 263 376 290 426 b 376 636 342 546 361 596 b 578 786 404 717 472 786 b 781 636 683 786 751 717 b 840 486 794 596 814 546 b 924 336 865 426 893 376 b 922 326 926 333 926 331 b 735 267 867 292 804 272 b 728 225 714 265 710 235 l 946 133 b 1015 47 985 117 1011 81 l 942 13 b 893 -19 924 4 908 -7 l 224 -19 b 210 133 103 -19 126 100 "},"u":{"ha":2774,"x_min":0,"x_max":0,"o":"m 882 -243 b 767 -97 771 -243 731 -171 b 856 -11 785 -60 814 -32 l 1218 163 b 1219 201 1239 174 1236 190 b 1094 393 1143 250 1106 303 l 1065 647 b 1149 861 1056 739 1083 810 b 1386 938 1214 913 1293 938 b 1626 861 1481 938 1561 913 b 1708 647 1692 810 1718 739 l 1679 393 b 1553 200 1668 303 1635 257 b 1553 163 1535 189 1535 172 l 1917 -11 b 1892 -243 2046 -67 2065 -249 m 222 -18 b 206 133 106 -18 122 92 l 449 250 b 451 290 471 260 472 278 b 372 415 406 317 379 358 l 353 592 b 408 736 346 654 364 701 b 569 788 453 771 507 788 b 731 736 632 788 686 771 b 786 592 775 701 793 654 l 767 415 b 688 290 760 358 733 317 b 690 250 667 278 668 260 l 933 133 b 989 82 958 122 976 106 l 844 13 b 797 -18 831 6 815 -4 m 1976 -18 b 1929 13 1958 -4 1943 6 l 1785 82 b 1840 133 1797 106 1815 122 l 2083 250 b 2086 290 2106 260 2107 278 b 2007 415 2040 317 2014 358 l 1988 592 b 2043 736 1981 654 1999 701 b 2204 788 2088 771 2142 788 b 2365 736 2267 788 2321 771 b 2421 592 2410 701 2428 654 l 2401 415 b 2322 290 2394 358 2368 317 b 2325 250 2301 278 2303 260 l 2568 133 b 2551 -18 2651 92 2668 -18 "},"v":{"ha":1521,"x_min":0,"x_max":0,"o":"m 1244 851 b 1360 624 1383 851 1406 733 b 1115 354 1319 522 1238 433 b 775 110 1064 208 931 115 l 775 -140 l 928 -140 b 935 -149 932 -140 935 -143 l 935 -160 b 928 -167 935 -164 932 -167 l 596 -167 b 589 -160 592 -167 589 -164 l 589 -149 b 596 -140 589 -143 592 -140 l 749 -140 l 749 110 b 408 353 593 115 463 207 b 161 624 288 431 200 529 b 278 851 115 733 136 851 l 383 851 l 383 931 b 424 972 383 953 401 972 l 1100 972 b 1140 931 1122 972 1140 953 l 1140 851 m 186 633 b 397 392 222 544 293 464 b 383 513 388 426 383 467 l 383 825 l 278 825 b 186 633 157 826 146 725 m 1336 633 b 1244 825 1374 725 1364 826 l 1140 825 l 1140 513 b 1126 393 1140 467 1136 428 b 1336 633 1228 464 1299 544 m 1106 -244 b 1114 -251 1111 -244 1114 -247 l 1114 -264 b 1106 -271 1114 -268 1111 -271 l 417 -271 b 410 -264 413 -271 410 -268 l 410 -251 b 417 -244 410 -247 413 -244 "},"w":{"ha":1072,"x_min":0,"x_max":0,"o":"m 894 701 b 935 660 917 701 936 683 b 775 -229 936 386 775 8 b 735 -269 775 -251 757 -269 l 342 -269 b 300 -229 319 -269 300 -251 b 140 660 299 8 142 386 b 181 701 139 683 158 701 l 431 701 l 431 843 b 424 856 431 850 428 854 l 168 1001 b 165 1011 164 1004 163 1007 l 171 1021 b 182 1024 172 1025 176 1026 l 436 879 b 457 843 450 871 457 858 l 457 701 m 167 660 b 200 392 168 581 179 492 b 431 363 274 353 350 343 l 431 675 l 181 675 b 167 660 171 675 167 669 m 908 660 b 894 675 910 667 904 675 l 457 675 l 457 371 b 535 399 468 375 494 383 b 642 438 581 417 617 431 b 747 446 667 444 701 447 b 879 410 792 444 836 432 b 908 660 897 506 907 589 "},"x":{"ha":1006,"x_min":0,"x_max":0,"o":"m 867 107 b 678 -214 867 -44 785 -164 b 503 -251 624 -239 565 -251 b 193 -92 376 -251 265 -204 b 139 107 157 -35 139 31 l 139 588 b 867 588 139 1067 867 1067 m 490 496 b 497 488 490 490 493 488 l 508 488 b 517 496 514 488 517 490 l 517 747 b 508 754 517 751 514 754 l 497 754 b 490 747 493 754 490 751 "},"y":{"ha":1451,"x_min":0,"x_max":0,"o":"m 586 525 b 617 736 554 618 569 657 b 657 871 647 792 661 836 b 594 1000 653 906 632 949 b 596 1011 592 1004 592 1007 l 606 1018 b 615 1015 610 1021 613 1019 b 685 874 658 958 681 911 b 639 722 689 835 674 785 b 610 535 597 649 585 618 b 606 525 613 531 611 528 l 594 521 b 586 525 590 519 588 521 m 786 525 b 817 736 754 618 769 657 b 858 872 847 792 861 838 b 794 1000 854 907 833 949 b 796 1011 792 1004 792 1007 l 806 1018 b 815 1015 810 1021 813 1019 b 885 874 858 958 881 911 b 839 722 889 835 874 785 b 799 633 817 685 803 654 b 811 535 794 611 799 578 b 807 525 813 531 811 528 l 796 521 b 786 525 790 519 788 521 m 1071 88 b 322 250 935 -292 322 -239 l 322 422 b 364 463 322 444 342 463 l 1056 463 b 1097 422 1078 463 1097 444 l 1097 379 l 1164 379 b 1164 88 1361 381 1361 86 m 1097 250 b 1079 114 1097 203 1092 157 l 1164 114 b 1288 233 1240 114 1288 174 b 1164 353 1288 293 1240 353 l 1097 353 m 1274 -257 b 1281 -265 1278 -257 1281 -260 l 1281 -276 b 1274 -285 1281 -282 1278 -285 l 146 -285 b 139 -276 142 -285 139 -282 l 139 -265 b 146 -257 139 -260 142 -257 "},"z":{"ha":1328,"x_min":0,"x_max":0,"o":"m 333 678 b 386 790 333 724 351 761 b 506 821 421 819 460 829 l 1128 704 b 1125 619 1217 686 1204 619 l 333 619 m 1189 -86 b 1176 -99 1189 -94 1185 -99 l 322 -99 b 193 -44 271 -99 228 -81 b 139 86 157 -8 139 35 l 139 410 b 193 540 139 461 157 504 b 322 593 228 575 271 593 l 1125 593 b 1189 611 1151 593 1172 599 m 357 279 b 244 232 315 322 244 289 b 310 167 244 197 275 167 b 375 232 344 167 375 197 b 357 279 375 250 369 267 "}}}
